<?xml version="1.0" encoding="iso-8859-1"?>
<!-- Generator: Adobe Illustrator 19.0.0, SVG Export Plug-In . SVG Version: 6.00 Build 0)  -->
<svg version="1.1" id="Capa_1" xmlns="http://www.w3.org/2000/svg" xmlns:xlink="http://www.w3.org/1999/xlink" x="0px" y="0px"
	 viewBox="0 0 418.113 418.113" style="enable-background:new 0 0 418.113 418.113;" xml:space="preserve">
<g>
	<g>
		<path d="M415.809,159.438c-0.512-1.536-2.048-2.048-3.584-2.56l-136.192-20.48l-60.928-122.88
			c-1.024-2.048-3.072-4.096-6.144-4.096c-3.072,0-5.12,1.536-6.144,4.096l-60.928,122.88L5.697,155.854
			c-3.584,0.512-6.144,4.096-5.632,7.68c0,1.536,0.512,2.56,2.048,4.096l98.304,95.744l-23.04,135.68
			c-0.512,3.584,2.048,7.68,5.632,8.192c1.536,0,2.56,0,4.096-0.512l121.856-63.488l121.856,64.512
			c3.584,2.048,7.68,0.512,9.216-2.56c0.512-1.536,0.512-2.56,0.512-4.096l-23.04-135.68l98.304-95.744
			C418.881,166.606,418.881,162.51,415.809,159.438z"/>
	</g>
</g>
<g>
</g>
<g>
</g>
<g>
</g>
<g>
</g>
<g>
</g>
<g>
</g>
<g>
</g>
<g>
</g>
<g>
</g>
<g>
</g>
<g>
</g>
<g>
</g>
<g>
</g>
<g>
</g>
<g>
</g>
</svg>
